<?xml version="1.0" encoding="utf-8"?>
<!-- Generator: Adobe Illustrator 24.1.3, SVG Export Plug-In . SVG Version: 6.00 Build 0)  -->
<svg version="1.1" id="Layer_1" xmlns="http://www.w3.org/2000/svg" xmlns:xlink="http://www.w3.org/1999/xlink" x="0px" y="0px"
	 viewBox="0 0 24.9 24.7" style="enable-background:new 0 0 24.9 24.7;" xml:space="preserve">
<style type="text/css">
	.st0{fill:#FFFFFF;}
	.st1{stroke:#000000;stroke-width:0.85;stroke-miterlimit:10;}
</style>
<g>
	<path class="st0" d="M24.5,23.8c0,0.2,0,0.4,0,0.6c-8,0-16.1,0-24.1,0c0-8,0-16.1,0-24.1c8,0,16.1,0,24.1,0c0,4.3,0,8.7,0,13.1
		c0-0.1,0-0.2,0-0.2C24.3,12,24.1,11,23.6,10c-0.6-1.2-1.6-2.2-2.9-2.7c-0.9-0.4-1.9-0.5-2.9-0.4c-1.2,0.1-2.3,0.5-3.2,1.2
		c-0.2,0.2-0.4,0.3-0.6,0.5c0-0.3,0-0.6-0.1-0.8c-0.1-0.5-0.3-0.7-0.8-0.7c-1.3,0-2.5,0.1-3.8,0.1c-0.5,0-0.7,0.2-0.7,0.7
		c0,0.8,0,1.7,0,2.5c0,4.4,0,8.7,0,13.1c0,0.6,0.2,0.8,0.8,0.8c1.4,0,2.8,0,4.2,0c0.5,0,0.7-0.2,0.7-0.7c0-1.4,0-2.7,0-4.1
		c0-1.6,0-3.3,0-4.9c0-0.4,0-0.8,0.2-1.1c0.4-0.9,1.2-1.3,2.1-1.4c0.9-0.1,1.7,0.4,2.1,1.2c0.2,0.6,0.3,1.2,0.3,1.8
		c0,2.8,0,5.6,0,8.5c0,0.6,0.2,0.7,0.7,0.7c1.4,0,2.8,0,4.1,0C24.1,24.2,24.3,24.1,24.5,23.8z M0.6,15.6c0,2.6,0,5.2,0,7.8
		c0,0.6,0.2,0.8,0.7,0.8c1.4,0,2.8,0,4.2,0c0.5,0,0.7-0.2,0.7-0.8c0-5.2,0-10.4,0-15.5c0-0.6-0.2-0.8-0.8-0.8c-1.4,0-2.8,0-4.1,0
		c-0.6,0-0.8,0.2-0.8,0.8C0.6,10.5,0.6,13,0.6,15.6z M3.6,0.4C3.3,0.5,3,0.5,2.7,0.6c-1.1,0.3-1.9,1-2.2,2.1c-0.3,1.2,0,2.2,0.9,3
		c0.8,0.7,1.7,0.8,2.6,0.7c1.8-0.2,3-1.9,2.6-3.6C6.3,1.3,5.2,0.5,3.6,0.4z"/>
	<path class="st1" d="M24.5,23.8c-0.1,0.3-0.4,0.4-0.7,0.4c-1.4,0-2.8,0-4.1,0c-0.6,0-0.7-0.2-0.7-0.7c0-2.8,0-5.6,0-8.5
		c0-0.6-0.1-1.2-0.3-1.8c-0.3-0.8-1.2-1.3-2.1-1.2c-0.9,0.1-1.7,0.5-2.1,1.4c-0.2,0.3-0.2,0.8-0.2,1.1c0,1.6,0,3.3,0,4.9
		c0,1.4,0,2.7,0,4.1c0,0.5-0.2,0.7-0.7,0.7c-1.4,0-2.8,0-4.2,0c-0.6,0-0.8-0.2-0.8-0.8c0-4.4,0-8.7,0-13.1c0-0.8,0-1.7,0-2.5
		c0-0.5,0.2-0.7,0.7-0.7c1.3,0,2.5-0.1,3.8-0.1c0.5,0,0.7,0.2,0.8,0.7c0,0.3,0,0.5,0.1,0.8c0.2-0.2,0.4-0.4,0.6-0.5
		c1-0.7,2-1.1,3.2-1.2c1-0.1,2,0,2.9,0.4c1.3,0.5,2.3,1.4,2.9,2.7c0.5,1,0.8,2.1,0.8,3.2c0,0.1,0,0.2,0,0.2
		C24.5,16.8,24.5,20.3,24.5,23.8z M23.3,23.1c0-0.1,0-0.1,0-0.1c0-2.9,0-5.8,0-8.7c0-1-0.1-2.1-0.5-3c-0.4-1.1-1-2.1-2.1-2.6
		c-1.4-0.7-2.8-0.7-4.3-0.2c-1,0.3-1.8,1-2.4,1.9c-0.2,0.3-0.4,0.4-0.8,0.3c-0.2-0.1-0.4-0.3-0.4-0.6c0-0.3-0.1-0.6-0.1-0.9
		c0-0.3-0.1-0.5-0.1-0.8c-1,0-2,0-3,0c0,5,0,9.9,0,14.8c1.2,0,2.3,0,3.4,0c0-0.1,0-0.2,0-0.3c0-2.9,0-5.8,0-8.7
		c0-0.4,0.1-0.8,0.2-1.2c0.5-1.1,1.4-1.7,2.5-2c1.4-0.3,2.9,0.2,3.6,1.7c0.4,0.7,0.5,1.5,0.5,2.3c0,2.6,0,5.3,0,7.9
		c0,0.1,0,0.2,0,0.3C21.1,23.1,22.2,23.1,23.3,23.1z"/>
	<path class="st1" d="M0.6,15.6c0-2.6,0-5.2,0-7.7c0-0.6,0.2-0.8,0.8-0.8c1.4,0,2.8,0,4.1,0c0.6,0,0.8,0.2,0.8,0.8
		c0,5.2,0,10.4,0,15.5c0,0.5-0.2,0.8-0.7,0.8c-1.4,0-2.8,0-4.2,0c-0.5,0-0.7-0.2-0.7-0.8C0.6,20.8,0.6,18.2,0.6,15.6z M1.7,8.2
		c0,4.9,0,9.8,0,14.8c1.1,0,2.3,0,3.4,0c0-4.9,0-9.8,0-14.8C4,8.2,2.8,8.2,1.7,8.2z"/>
	<path class="st1" d="M3.6,0.4c1.6,0,2.7,0.9,3.1,2.4c0.4,1.7-0.8,3.4-2.6,3.6c-1,0.1-1.9,0-2.6-0.7c-0.9-0.8-1.2-1.9-0.9-3
		c0.3-1.1,1.1-1.8,2.2-2.1C3,0.5,3.3,0.5,3.6,0.4z M3.7,5.3c0.1,0,0.4,0,0.6-0.1C5,5,5.4,4.6,5.5,3.9c0.1-0.7,0-1.4-0.6-1.9
		C4.4,1.6,3.8,1.5,3.2,1.6C2,1.8,1.4,2.8,1.6,3.9C1.8,4.8,2.6,5.3,3.7,5.3z"/>
	<path class="st0" d="M23.3,23.1c-1.1,0-2.2,0-3.3,0c0-0.1,0-0.2,0-0.3c0-2.6,0-5.3,0-7.9c0-0.8-0.1-1.6-0.5-2.3
		c-0.7-1.5-2.3-2-3.6-1.7c-1.2,0.3-2,0.9-2.5,2c-0.2,0.3-0.2,0.8-0.2,1.2c0,2.9,0,5.8,0,8.7c0,0.1,0,0.2,0,0.3c-1.1,0-2.3,0-3.4,0
		c0-4.9,0-9.8,0-14.8c1,0,2,0,3,0c0,0.2,0.1,0.5,0.1,0.8c0,0.3,0.1,0.6,0.1,0.9c0,0.3,0.2,0.5,0.4,0.6c0.3,0.1,0.6,0,0.8-0.3
		c0.6-0.9,1.4-1.5,2.4-1.9c1.4-0.5,2.9-0.5,4.3,0.2c1.1,0.6,1.7,1.5,2.1,2.6c0.4,1,0.5,2,0.5,3c0,2.9,0,5.8,0,8.7
		C23.4,23,23.3,23,23.3,23.1z"/>
	<path class="st0" d="M1.7,8.2c1.1,0,2.2,0,3.4,0c0,4.9,0,9.8,0,14.8c-1.1,0-2.3,0-3.4,0C1.7,18.1,1.7,13.2,1.7,8.2z"/>
	<path class="st0" d="M3.7,5.3c-1.1,0-1.8-0.5-2-1.4C1.4,2.8,2,1.8,3.2,1.6c0.6-0.1,1.2,0,1.7,0.4c0.6,0.5,0.8,1.1,0.6,1.9
		C5.4,4.6,5,5,4.3,5.2C4.1,5.3,3.8,5.3,3.7,5.3z"/>
</g>
</svg>
