<?xml version="1.0" encoding="utf-8"?>
<!-- Generator: Adobe Illustrator 24.1.3, SVG Export Plug-In . SVG Version: 6.00 Build 0)  -->
<svg version="1.1" id="Layer_1" xmlns="http://www.w3.org/2000/svg" xmlns:xlink="http://www.w3.org/1999/xlink" x="0px" y="0px"
	 viewBox="0 0 497.93 492.89" style="enable-background:new 0 0 497.93 492.89;" xml:space="preserve">
<style type="text/css">
	.st0{fill:#FFFFFF;}
	.st1{stroke:#000000;stroke-width:9;stroke-miterlimit:10;}
</style>
<g>
	<path class="st0" d="M493.43,479.64c0,4.14,0,8.27,0,12.41c-163.2,0-326.39,0-489.66,0c0-163.17,0-326.35,0-489.66
		c163.17,0,326.41,0,489.66,0c0,88.39,0,176.84,0,265.29c-0.33-1.54-0.83-3.06-0.96-4.61c-1.86-22.68-6.84-44.57-17.24-64.94
		c-12.94-25.31-32.14-43.93-59.09-53.98c-19.26-7.18-39.12-9.15-59.54-7.39c-24.18,2.08-46.09,9.97-65.57,24.47
		c-4.25,3.17-8.26,6.66-12.99,10.5c-0.55-6.27-1-11.76-1.53-17.24c-1.09-11.15-5.12-14.8-16.29-14.57
		c-25.61,0.53-51.22,1.13-76.82,1.68c-11.03,0.24-14.84,4.18-14.65,15.12c0.29,16.86,0.75,33.73,0.77,50.59
		c0.1,88.47,0.07,176.95,0.09,265.42c0,11.98,3.62,15.55,15.69,15.55c28.32,0,56.64,0.01,84.96,0c10.94,0,14.99-4.04,14.99-14.93
		c0.01-27.53,0-55.06,0-82.59c0-33.42-0.21-66.84,0.16-100.25c0.09-7.8,0.44-16.39,3.66-23.21c8.26-17.5,23.49-25.84,42.56-27.7
		c18.13-1.77,34.78,8.42,41.79,25.27c4.89,11.75,5.95,23.97,5.96,36.41c0.05,57.29,0.01,114.57,0.03,171.86
		c0,11.26,3.95,15.14,15.23,15.15c28,0.01,56.01-0.13,84.01,0.1C485.69,488.45,490.61,486.12,493.43,479.64z M7.28,313.03
		c0,52.82-0.01,105.64,0.01,158.46c0,11.24,3.98,15.3,15.11,15.31c28.47,0.03,56.95,0.04,85.42,0c11.04-0.01,15.14-4.24,15.15-15.37
		c0-105.32,0-210.65,0-315.97c0-11.35-4.19-15.59-15.44-15.59c-28-0.01-56,0-83.99,0c-12.48,0-16.25,3.73-16.25,16.13
		C7.27,208.34,7.28,260.68,7.28,313.03z M69.02,4.51c-6.11,0.88-12.37,1.17-18.29,2.75C28.13,13.31,12.39,27.08,6.75,50.2
		c-5.78,23.68-0.63,44.96,17.99,61.56c15.33,13.66,33.82,16.88,53.86,14.65c36.15-4.02,60.85-38.54,52.45-73.88
		C124.04,23.03,100.67,5.13,69.02,4.51z"/>
	<path class="st1" d="M493.43,479.64c-2.82,6.48-7.74,8.81-14.78,8.75c-28-0.23-56-0.09-84.01-0.1c-11.28,0-15.23-3.89-15.23-15.15
		c-0.02-57.29,0.02-114.57-0.03-171.86c-0.01-12.43-1.07-24.66-5.96-36.41c-7.01-16.85-23.66-27.04-41.79-25.27
		c-19.07,1.86-34.3,10.2-42.56,27.7c-3.22,6.82-3.57,15.41-3.66,23.21c-0.37,33.41-0.16,66.83-0.16,100.25
		c0,27.53,0.01,55.06,0,82.59c0,10.89-4.06,14.93-14.99,14.93c-28.32,0.01-56.64,0.01-84.96,0c-12.07,0-15.69-3.58-15.69-15.55
		c-0.02-88.47,0-176.95-0.09-265.42c-0.02-16.86-0.48-33.73-0.77-50.59c-0.19-10.94,3.63-14.88,14.65-15.12
		c25.61-0.55,51.22-1.15,76.82-1.68c11.16-0.23,15.19,3.42,16.29,14.57c0.54,5.48,0.98,10.97,1.53,17.24
		c4.73-3.84,8.74-7.33,12.99-10.5c19.47-14.5,41.39-22.4,65.57-24.47c20.42-1.75,40.28,0.21,59.54,7.39
		c26.95,10.05,46.15,28.66,59.09,53.98c10.41,20.36,15.38,42.25,17.24,64.94c0.13,1.55,0.63,3.08,0.96,4.61
		C493.43,338.33,493.43,408.99,493.43,479.64z M470.37,465.13c0.07-1.34,0.14-2.13,0.14-2.92c0-59.03,0.12-118.05-0.06-177.08
		c-0.06-21.05-2.34-41.89-9.55-61.86c-8.19-22.7-21.29-41.68-43.3-52.9c-28.18-14.35-57.51-14.53-86.94-4.52
		c-20.65,7.02-36.76,20.42-49.15,38.33c-4.02,5.81-8.75,7.57-15.25,5.98c-4.95-1.21-7.94-5.16-8.68-11.76
		c-0.69-6.16-1.2-12.34-1.85-18.5c-0.57-5.45-1.21-10.89-1.74-15.58c-21.05,0-41.31,0-61.23,0c0,100.86,0,200.82,0,300.66
		c23.46,0,46.27,0,69.45,0c0-2.39,0-4.44,0-6.49c0.07-58.87-0.04-117.73,0.44-176.6c0.06-7.88,1.69-16.39,4.99-23.49
		c10.25-22.02,28.37-34.87,51.79-40.38c27.52-6.48,59.06,4.02,73.75,34.44c7.15,14.8,9.45,30.54,9.46,46.74
		c0.03,53.46,0.01,106.92,0.01,160.37c0,1.83,0,3.66,0,5.54C425.56,465.13,447.78,465.13,470.37,465.13z"/>
	<path class="st1" d="M7.28,313.03c0-52.34,0-104.69,0-157.03c0-12.4,3.77-16.13,16.25-16.13c28,0,56-0.01,83.99,0
		c11.25,0,15.44,4.24,15.44,15.59c0,105.32,0,210.65,0,315.97c0,11.13-4.11,15.35-15.15,15.37c-28.47,0.04-56.95,0.04-85.42,0
		c-11.12-0.01-15.1-4.07-15.11-15.31C7.27,418.67,7.28,365.85,7.28,313.03z M30.63,163.38c0,100.11,0,199.92,0,299.87
		c23.08,0,45.88,0,68.86,0c0-100.07,0-199.85,0-299.87C76.34,163.38,53.53,163.38,30.63,163.38z"/>
	<path class="st1" d="M69.02,4.51c31.65,0.62,55.02,18.53,62.02,48.02c8.39,35.34-16.3,69.86-52.45,73.88
		c-20.04,2.23-38.53-0.99-53.86-14.65C6.12,95.17,0.97,73.88,6.75,50.2c5.64-23.12,21.39-36.9,43.98-42.94
		C56.65,5.68,62.92,5.39,69.02,4.51z M70.37,103.95c2.66-0.47,8.1-0.89,13.19-2.46c13.31-4.11,22.26-13.03,24.93-26.79
		c2.83-14.6-0.47-27.91-12.48-37.73c-10.23-8.36-22.33-9.95-35.08-8.15c-25.11,3.53-37.27,24.52-31.89,46.97
		C33.33,93.67,47.9,103.85,70.37,103.95z"/>
	<path class="st0" d="M470.37,465.13c-22.59,0-44.81,0-67.73,0c0-1.88,0-3.71,0-5.54c0-53.46,0.02-106.92-0.01-160.37
		c-0.01-16.2-2.31-31.93-9.46-46.74c-14.68-30.42-46.23-40.92-73.75-34.44c-23.42,5.51-41.54,18.37-51.79,40.38
		c-3.3,7.1-4.93,15.6-4.99,23.49c-0.48,58.86-0.37,117.73-0.44,176.6c0,2.05,0,4.09,0,6.49c-23.18,0-45.99,0-69.45,0
		c0-99.84,0-199.8,0-300.66c19.92,0,40.18,0,61.23,0c0.53,4.7,1.17,10.14,1.74,15.58c0.65,6.16,1.16,12.34,1.85,18.5
		c0.74,6.61,3.73,10.55,8.68,11.76c6.5,1.59,11.23-0.17,15.25-5.98c12.39-17.92,28.51-31.32,49.15-38.33
		c29.44-10.01,58.76-9.83,86.94,4.52c22.02,11.21,35.11,30.2,43.3,52.9c7.21,19.98,9.49,40.81,9.55,61.86
		c0.18,59.03,0.07,118.05,0.06,177.08C470.51,463,470.44,463.79,470.37,465.13z"/>
	<path class="st0" d="M30.63,163.38c22.9,0,45.72,0,68.86,0c0,100.02,0,199.8,0,299.87c-22.98,0-45.78,0-68.86,0
		C30.63,363.3,30.63,263.49,30.63,163.38z"/>
	<path class="st0" d="M70.37,103.95c-22.47-0.1-37.04-10.28-41.33-28.16c-5.38-22.45,6.78-43.44,31.89-46.97
		c12.75-1.79,24.85-0.21,35.08,8.15c12.01,9.81,15.31,23.12,12.48,37.73c-2.67,13.75-11.63,22.67-24.93,26.79
		C78.47,103.06,73.02,103.48,70.37,103.95z"/>
</g>
</svg>
